<svg width="86" height="76" viewBox="0 0 86 76" fill="none" xmlns="http://www.w3.org/2000/svg">
<path d="M81.5503 1.44316C80.7141 -0.412059 78.325 -0.486268 77.3245 1.26506C72.6956 9.26477 64.4084 14.2516 54.9415 14.2516H42.9959C27.168 14.2516 14.3265 27.0155 14.3265 42.7478C14.3265 43.7867 14.446 44.7811 14.5505 45.7903C24.0771 39.0077 37.8295 33.2491 57.3306 33.2491C58.6446 33.2491 59.7197 34.3177 59.7197 35.6237C59.7197 36.9298 58.6446 37.9984 57.3306 37.9984C19.7916 37.9984 3.87414 60.8696 0.350198 69.4629C-0.635313 71.8821 0.529381 74.6427 2.96329 75.6371C5.41214 76.6464 8.18948 75.4739 9.20486 73.0695C9.42884 72.5352 12.3256 65.9603 19.9409 59.6229C24.7789 66.1384 33.977 72.3571 46.057 71.0807C69.5002 69.3887 86 48.4915 86 22.9043C86 15.4538 84.3874 7.73607 81.5503 1.44316Z" fill="white"/>
</svg>
